<svg xmlns="http://www.w3.org/2000/svg" fill="none" viewBox="0 0 313 287"><path d="m221.19 61.6619h-106.974l-53.4875 92.9601 53.4875 92.96h106.974l53.487-92.96z" fill="#fff"></path><path d="m113.756 247.292-11.388-19.732h-48.7973l-21.18-36.698-15.7891 27.356 36.9317 63.969h73.8637l15.611-27.056-4.531-7.839z" fill="#9c1d8b"></path><path d="m267.857 50.2263h-23.002l24.572 42.5654-15.285 26.4773 20.339 35.222-28.075 48.638 21.563-37.361 10.735 18.582 33.298-57.672z" fill="#97d045"></path><path d="m246.406 203.129-25.497 44.163h-73.368l-4.531 7.839 17.863 30.934h88.279l44.135-76.443-14.584-25.272-10.847 18.779z" fill="#ffff01"></path><path d="m138.482 247.292 4.532 7.839 4.531-7.839z" fill="#ffff01"></path><path d="m32.3912 190.862 21.1425-36.614h6.7922l15.1352-26.225-20.3391-35.2313 29.3455-50.815h-30.8964l-53.5711 92.7923z" fill="#f00f83"></path><path d="m32.3945 190.862 21.18 36.698z" fill="#f00f83"></path><g fill="#97d045"><path d="m278.704 184.35-10.735-18.582z"></path><path d="m278.704 184.35-10.735-18.582z" opacity=".45"></path><path d="m267.969 165.768-21.563 37.361z"></path><path d="m267.969 165.768-21.563 37.361z" opacity=".45"></path></g><path d="m267.855 203.129 10.847-18.779z" fill="#ffff01"></path><path d="m267.855 203.129 10.847-18.779z" fill="#97d045" opacity=".45"></path><path d="m267.857 203.129 10.847-18.779-10.735-18.582-21.563 37.361z" fill="#ffff01"></path><path d="m267.857 203.129 10.847-18.779-10.735-18.582-21.563 37.361z" fill="#d0ea20"></path><path d="m172.113 61.6993h.85l6.624-11.4729h65.259.009l-29.009-50.2264h-107.142l-24.2352 41.9768h76.2552z" fill="#01a0c6"></path><path d="m269.424 92.7917-24.571-42.5654h-.009z" fill="#01a0c6"></path><path d="m84.4646 41.9767-29.3455 50.815z" fill="#f00f83"></path><path d="m84.4646 41.9767-29.3455 50.815z" fill="#f00f83" opacity=".56"></path><path d="m113.757 61.6993-38.2961 66.3237z" fill="#01a0c6"></path><path d="m113.757 61.6993-38.2961 66.3237z" fill="#f00f83" opacity=".56"></path><path d="m75.4582 128.023 38.2958-66.3238h58.355l-11.389-19.7225h-76.2554l-29.3455 50.815z" fill="#01a0c6"></path><path d="m75.4582 128.023 38.2958-66.3238h58.355l-11.389-19.7225h-76.2554l-29.3455 50.815z" fill="#874fa1"></path><path d="m60.3246 154.248-.143.248z" fill="#9c1d8b"></path><path d="m60.3246 154.248-.143.248z" fill="#9c1d8b" opacity=".52"></path><path d="m60.1816 154.491 42.1824 73.069z" fill="#f00f83"></path><path d="m60.1816 154.491 42.1824 73.069z" fill="#9c1d8b" opacity=".52"></path><path d="m32.3945 190.862 21.1426-36.614z" fill="#f00f83"></path><path d="m32.3945 190.862 21.1426-36.614z" fill="#9c1d8b" opacity=".52"></path><path d="m60.3292 154.248h-6.7921l-21.1426 36.614 21.18 36.698h48.7965l-42.1819-73.069z" fill="#f00f83"></path><path d="m60.3292 154.248h-6.7921l-21.1426 36.614 21.18 36.698h48.7965l-42.1819-73.069z" fill="#c41687"></path><path d="m254.142 119.269-33.232-57.5697z" fill="#01a0c6"></path><path d="m254.142 119.269-33.232-57.5697z" fill="#97d045" opacity=".54"></path><path d="m179.587 50.2263-6.624 11.4729h47.947l33.232 57.5698 15.284-26.4773-24.58-42.5654z" fill="#01a0c6"></path><path d="m179.587 50.2263-6.624 11.4729h47.947l33.232 57.5698 15.284-26.4773-24.58-42.5654z" fill="#52ba80"></path><path d="m123.875 166.992-19.189-33.232 19.189-33.232h38.371l19.181 33.232-19.181 33.232z" fill="#ffffd9"></path><path d="m195.18 189.685-15.649-27.103 15.649-27.094h31.289l15.649 27.094-15.649 27.103z" fill="#ffffd9"></path><path d="m134.487 227.112-15.639-27.103 15.639-27.103h31.298l15.64 27.103-15.64 27.103z" fill="#fddbec"></path><path d="m193.162 120.101-11.1-19.218 11.1-19.209h22.189l11.089 19.209-11.089 19.218z" fill="#d9f1f7"></path></svg>